<?xml version="1.0" encoding="utf-8"?>
<!-- Generator: Adobe Illustrator 17.0.0, SVG Export Plug-In . SVG Version: 6.00 Build 0)  -->
<!DOCTYPE svg PUBLIC "-//W3C//DTD SVG 1.1//EN" "http://www.w3.org/Graphics/SVG/1.1/DTD/svg11.dtd">
<svg version="1.1" id="Layer_1" xmlns="http://www.w3.org/2000/svg" xmlns:xlink="http://www.w3.org/1999/xlink" x="0px" y="0px"
	 width="582.777px" height="75.854px" viewBox="4.859 388.277 582.777 75.854"
	 enable-background="new 4.859 388.277 582.777 75.854" xml:space="preserve">
<g enable-background="new    ">
	<path d="M49.23,440.678c0,15.636-7.071,23.453-21.213,23.453c-15.439,0-23.158-8.17-23.158-24.51v-7.649
		c0-14.902,7.353-22.354,22.059-22.354c5.015,0,9.212,1.142,12.593,3.423v-5.958c0-7.86-3.803-11.79-11.41-11.79
		c-7.297,0-10.945,2.592-10.945,7.775H7.437c0.056-9.86,6.832-14.79,20.326-14.79c14.312,0,21.467,6.283,21.467,18.847V440.678z
		 M39.511,441.1v-20.241c-3.015-2.846-6.818-4.269-11.41-4.269c-4.536,0-7.868,1.204-9.994,3.613
		c-2.127,2.409-3.19,6.135-3.19,11.178v7.902c0,11.917,4.366,17.875,13.1,17.875C35.679,457.158,39.511,451.806,39.511,441.1z"/>
	<path d="M122.844,463.243h-12.551c8.085-7.015,12.128-16.339,12.128-27.975v-25.06c0-5.099-0.845-8.854-2.536-11.262
		s-4.283-3.613-7.775-3.613c-6.114,0-9.17,4.394-9.17,13.184v32.159c0,15.636-7.198,23.453-21.594,23.453
		c-14.087,0-21.129-8.099-21.129-24.299v-28.355c0-15.466,7.198-23.199,21.594-23.199c7.38,0,12.367,2.958,14.959,8.874
		c2.901-5.916,8.043-8.874,15.424-8.874c6.62,0,11.593,1.817,14.917,5.451c3.324,3.634,4.987,9.128,4.987,16.48v26.327
		C132.099,448.481,129.014,457.384,122.844,463.243z M93.179,411.477c0-10.761-3.789-16.142-11.367-16.142
		c-7.945,0-11.917,5.381-11.917,16.142v28.355c0,11.552,3.972,17.326,11.917,17.326c7.578,0,11.367-5.493,11.367-16.48V411.477z"/>
	<path d="M186.824,435.733v3.085c0,16.875-7.226,25.313-21.678,25.313c-15.129,0-22.693-8.874-22.693-26.623
		c0-4.592,1.028-9.804,3.085-15.636h10.438c-2.254,6.818-3.38,12.03-3.38,15.636c0,13.101,4.184,19.65,12.551,19.65
		c7.719,0,11.579-6.155,11.579-18.467v-2.958c0-9.213-3.409-16.946-10.227-23.2c-6.79-6.254-10.339-14.058-10.649-23.411h10.776
		v0.887c0,7.973,3.296,15.171,9.888,21.594C183.387,418.309,186.824,426.352,186.824,435.733z"/>
	<path d="M239.14,405.646c-0.226,7.156-3.296,12.029-9.212,14.621c7.324,4.029,10.987,10.283,10.987,18.763v3.508
		c0,14.396-7.438,21.594-22.313,21.594c-14.706,0-22.059-7.508-22.059-22.523c0-2.986,1.141-7.508,3.423-13.565h10.184
		c-2.338,5.944-3.507,10.706-3.507,14.283c0,9.889,4.142,14.833,12.424,14.833c7.804,0,11.706-5,11.706-15.002v-3.127
		c0-9.691-3.113-14.537-9.339-14.537h-3.55v-7.438h3.338c5.184,0,7.776-3.732,7.776-11.198c0-7.071-3.396-10.606-10.185-10.606
		c-6.874,0-10.311,3.324-10.311,9.973c0,2.535,0.789,5.353,2.367,8.451h-10.1c-0.62-1.211-1.092-2.557-1.416-4.035
		c-0.324-1.479-0.486-3.078-0.486-4.797c0-11.042,6.648-16.564,19.946-16.564C232.364,388.277,239.14,394.067,239.14,405.646z"/>
	<path d="M324.037,429.521v3.042c0,12.678-4.902,22.919-14.706,30.723h-13.185c11.606-9.213,17.41-19.313,17.41-30.3v-4.606
		c0-8.846-3.311-13.269-9.93-13.269c-7.748,0-11.621,3.888-11.621,11.663v14.452h-9.128v-14.452c0-7.747-4.085-11.621-12.255-11.621
		c-6.565,0-9.846,4.409-9.846,13.227v5.029c0,10.902,5.986,20.861,17.959,29.877h-12.973c-10.086-7.804-15.128-18.045-15.128-30.723
		v-2.831c0-11.691,4.084-21.749,12.255-30.173c8.226-7.521,22.918-11.282,44.076-11.282v9.296c-1.353-0.056-2.648-0.098-3.888-0.126
		c-1.24-0.028-2.466-0.043-3.677-0.043c-19.805,0-31.482,4.198-35.032,12.594l5.578-2.324c7.832,0,13.762,3.07,17.791,9.212
		c3.605-6.142,8.634-9.212,15.086-9.212C316.938,407.674,324.009,414.956,324.037,429.521z"/>
	<path d="M378.171,405.265v36.681c0,7.438-1.853,12.994-5.557,16.671c-3.705,3.677-9.347,5.515-16.925,5.515
		c-14.621,0-21.933-7.438-21.933-22.313c0-2.563,0.359-4.972,1.078-7.227c0.718-2.253,1.754-4.437,3.105-6.55h10.48
		c-3.015,5.213-4.521,9.804-4.521,13.776c0,10.227,4.028,15.34,12.086,15.34c8.282,0,12.424-5.212,12.424-15.636v-38.751
		c0-5.015-1.846-7.521-5.536-7.521c-2.197,0-3.817,0.641-4.859,1.922c-1.043,1.282-1.563,3.163-1.563,5.642v14.241h-8.452v-14.072
		c0-4.845-2.07-7.268-6.212-7.268h-8.029v-7.438h9.72c3.353,0,6.212,1.874,8.578,5.62c2.282-3.746,5.817-5.62,10.607-5.62
		c5.324,0,9.24,1.388,11.748,4.163C376.917,395.215,378.171,399.49,378.171,405.265z"/>
	<path d="M430.233,447.312c19.298,0,30.511,5.312,33.638,15.932h-13.185c-0.817-5.747-7.635-8.62-20.453-8.62
		c-14.199,0-23.849,1.985-28.947,5.958l-2.916-7.564c2.282-1.831,5.931-3.226,10.945-4.184
		c-13.805-9.409-20.707-22.199-20.707-38.37c0-14.791,6.339-22.186,19.017-22.186c3.324,0,6.197,0.549,8.621,1.648
		c2.422,1.099,4.479,2.747,6.17,4.944c1.689-4.395,5.916-6.592,12.677-6.592c2.648,0,5.015,0.549,7.1,1.648s3.944,2.747,5.578,4.944
		c2.789-4.395,7.606-6.592,14.452-6.592c12.932,0,19.397,7.254,19.397,21.763c0,12.762-3.606,22.707-10.818,29.834h-12.171
		c4.423-3.972,7.691-8.401,9.805-13.29c2.112-4.888,3.169-10.402,3.169-16.544c0-9.832-3.1-14.748-9.297-14.748
		c-7.043,0-10.564,3.564-10.564,10.691v20.41h-8.283v-20.41c0-7.127-2.859-10.691-8.578-10.691c-5.493,0-8.24,3.564-8.24,10.691
		v20.41h-8.367v-20.41c0-3.69-0.866-6.396-2.599-8.114c-1.733-1.717-4.389-2.577-7.966-2.577c-3.071,0-5.332,1.239-6.783,3.719
		s-2.176,6.296-2.176,11.452c0,16.199,7.381,28.566,22.144,37.103C423.768,447.396,426.881,447.312,430.233,447.312z"/>
	<path d="M535.542,431.169c0,11.636-2.353,22.327-7.058,32.074h-10.48c5.156-7.719,7.733-18.41,7.733-32.074v-17.706
		c0-12.113-3.972-18.171-11.917-18.171c-8.086,0-12.128,6.058-12.128,18.171v17.706c0,13.298,2.774,23.989,8.325,32.074h-10.522
		c-5.015-9.409-7.522-20.101-7.522-32.074v-17.706c0-16.791,7.297-25.186,21.891-25.186c14.452,0,21.679,8.395,21.679,25.186
		V431.169z"/>
</g>
<g enable-background="new    ">
	<path fill="#F05455" d="M564.708,430.076h22.928v31.73h-22.928V430.076z"/>
</g>
</svg>
